<svg width="24" height="25" viewBox="0 0 24 25" fill="none" xmlns="http://www.w3.org/2000/svg">
<g opacity="0.55">
<path d="M20.4989 11.6123L12.1992 19.912C11.1824 20.9288 9.80335 21.5 8.36541 21.5C6.92747 21.5 5.54842 20.9288 4.53165 19.912C3.51487 18.8952 2.94365 17.5162 2.94365 16.0782C2.94365 14.6403 3.51487 13.2613 4.53165 12.2445L12.8314 3.94477C13.5092 3.26692 14.4286 2.88611 15.3872 2.88611C16.3458 2.88611 17.2652 3.26692 17.943 3.94477C18.6209 4.62262 19.0017 5.54199 19.0017 6.50061C19.0017 7.45924 18.6209 8.3786 17.943 9.05645L9.6343 17.3562C9.29537 17.6951 8.83569 17.8855 8.35638 17.8855C7.87706 17.8855 7.41738 17.6951 7.07846 17.3562C6.73953 17.0172 6.54912 16.5576 6.54912 16.0782C6.54912 15.5989 6.73953 15.1392 7.07846 14.8003L14.746 7.14183" stroke="black" stroke-width="1.5" stroke-linecap="round" stroke-linejoin="round"/>
</g>
</svg>
